<mxfile host="app.diagrams.net" modified="2022-04-28T09:02:35.281Z" agent="5.0 (Windows NT 10.0; Win64; x64) AppleWebKit/537.36 (KHTML, like Gecko) Chrome/100.0.4896.88 Safari/537.36" etag="_akNGdEA1G4LkptgKWST" version="17.2.4" type="github">
  <diagram id="rW_Qxm2giM36Z7j2Cru5" name="Page-1">
    <mxGraphModel dx="1422" dy="772" grid="1" gridSize="10" guides="1" tooltips="1" connect="1" arrows="1" fold="1" page="1" pageScale="1" pageWidth="827" pageHeight="1169" math="0" shadow="0">
      <root>
        <mxCell id="0" />
        <mxCell id="1" parent="0" />
        <mxCell id="DyZG_olXjLvC-N-5UW_N-3" value="" style="edgeStyle=orthogonalEdgeStyle;rounded=0;orthogonalLoop=1;jettySize=auto;html=1;" edge="1" parent="1" source="DyZG_olXjLvC-N-5UW_N-1" target="DyZG_olXjLvC-N-5UW_N-2">
          <mxGeometry relative="1" as="geometry" />
        </mxCell>
        <mxCell id="DyZG_olXjLvC-N-5UW_N-1" value="" style="ellipse;whiteSpace=wrap;html=1;" vertex="1" parent="1">
          <mxGeometry x="250" y="90" width="120" height="80" as="geometry" />
        </mxCell>
        <mxCell id="DyZG_olXjLvC-N-5UW_N-2" value="" style="rhombus;whiteSpace=wrap;html=1;" vertex="1" parent="1">
          <mxGeometry x="270" y="250" width="80" height="80" as="geometry" />
        </mxCell>
        <mxCell id="DyZG_olXjLvC-N-5UW_N-4" value="Attribute" style="ellipse;shape=doubleEllipse;margin=3;whiteSpace=wrap;html=1;align=center;" vertex="1" parent="1">
          <mxGeometry x="130" y="420" width="100" height="40" as="geometry" />
        </mxCell>
        <mxCell id="DyZG_olXjLvC-N-5UW_N-5" value="Cloud" style="ellipse;shape=cloud;whiteSpace=wrap;html=1;align=center;" vertex="1" parent="1">
          <mxGeometry x="360" y="370" width="100" height="60" as="geometry" />
        </mxCell>
        <mxCell id="DyZG_olXjLvC-N-5UW_N-6" value="Relationship" style="shape=rhombus;double=1;perimeter=rhombusPerimeter;whiteSpace=wrap;html=1;align=center;" vertex="1" parent="1">
          <mxGeometry x="350" y="370" width="120" height="60" as="geometry" />
        </mxCell>
        <mxCell id="DyZG_olXjLvC-N-5UW_N-7" value="Associative&#xa;Entity" style="shape=associativeEntity;whiteSpace=wrap;html=1;align=center;" vertex="1" parent="1">
          <mxGeometry x="220" y="450" width="140" height="60" as="geometry" />
        </mxCell>
        <mxCell id="DyZG_olXjLvC-N-5UW_N-8" value="" style="ellipse;whiteSpace=wrap;html=1;strokeWidth=2;fillWeight=2;hachureGap=8;fillColor=#990000;fillStyle=dots;sketch=1;" vertex="1" parent="1">
          <mxGeometry x="400" y="190" width="120" height="60" as="geometry" />
        </mxCell>
        <mxCell id="DyZG_olXjLvC-N-5UW_N-9" value="" style="rounded=1;whiteSpace=wrap;html=1;strokeWidth=2;fillWeight=4;hachureGap=8;hachureAngle=45;fillColor=#1ba1e2;sketch=1;" vertex="1" parent="1">
          <mxGeometry x="30" y="220" width="120" height="60" as="geometry" />
        </mxCell>
        <mxCell id="DyZG_olXjLvC-N-5UW_N-10" value="Activity" style="rounded=1;whiteSpace=wrap;html=1;arcSize=40;fontColor=#000000;fillColor=#ffffc0;strokeColor=#ff0000;" vertex="1" parent="1">
          <mxGeometry x="350" y="550" width="120" height="40" as="geometry" />
        </mxCell>
        <mxCell id="DyZG_olXjLvC-N-5UW_N-11" value="" style="edgeStyle=orthogonalEdgeStyle;html=1;verticalAlign=bottom;endArrow=open;endSize=8;strokeColor=#ff0000;rounded=0;" edge="1" source="DyZG_olXjLvC-N-5UW_N-10" parent="1">
          <mxGeometry relative="1" as="geometry">
            <mxPoint x="410" y="650" as="targetPoint" />
          </mxGeometry>
        </mxCell>
        <mxCell id="DyZG_olXjLvC-N-5UW_N-12" value="" style="ellipse;html=1;shape=endState;fillColor=#000000;strokeColor=#ff0000;" vertex="1" parent="1">
          <mxGeometry x="150" y="740" width="30" height="30" as="geometry" />
        </mxCell>
        <mxCell id="DyZG_olXjLvC-N-5UW_N-13" value="Entity" style="swimlane;childLayout=stackLayout;horizontal=1;startSize=30;horizontalStack=0;rounded=1;fontSize=14;fontStyle=0;strokeWidth=2;resizeParent=0;resizeLast=1;shadow=0;dashed=0;align=center;" vertex="1" parent="1">
          <mxGeometry x="180" y="980" width="160" height="120" as="geometry" />
        </mxCell>
        <mxCell id="DyZG_olXjLvC-N-5UW_N-14" value="+Attribute1&#xa;+Attribute2&#xa;+Attribute3" style="align=left;strokeColor=none;fillColor=none;spacingLeft=4;fontSize=12;verticalAlign=top;resizable=0;rotatable=0;part=1;" vertex="1" parent="DyZG_olXjLvC-N-5UW_N-13">
          <mxGeometry y="30" width="160" height="90" as="geometry" />
        </mxCell>
      </root>
    </mxGraphModel>
  </diagram>
</mxfile>
